<?xml version="1.0" standalone="no"?>
<!DOCTYPE svg PUBLIC "-//W3C//DTD SVG 20010904//EN"
 "http://www.w3.org/TR/2001/REC-SVG-20010904/DTD/svg10.dtd">
<svg version="1.0" xmlns="http://www.w3.org/2000/svg"
 width="900.000000pt" height="900.000000pt" viewBox="0 0 900.000000 900.000000"
 preserveAspectRatio="xMidYMid meet">
<metadata>
Created by potrace 1.14, written by Peter Selinger 2001-2017
</metadata>
<g transform="translate(0.000000,900.000000) scale(0.100000,-0.100000)"
fill="#000000" stroke="none">
<path d="M3396 7763 c-1 -1 -107 -5 -236 -8 -129 -3 -264 -8 -300 -10 -36 -2
-117 -6 -180 -10 -63 -3 -133 -8 -155 -10 -22 -2 -87 -6 -145 -10 -57 -4 -112
-8 -120 -10 -9 -2 -56 -6 -106 -10 -49 -4 -92 -9 -97 -12 -4 -2 -33 -6 -64 -8
-76 -5 -141 -13 -239 -31 -117 -21 -283 -72 -311 -96 -7 -6 -13 -8 -13 -4 0 6
-100 -42 -110 -53 -3 -4 -12 -7 -20 -9 -41 -9 -268 -179 -350 -262 -80 -81
-252 -310 -233 -310 4 0 3 -4 -3 -8 -18 -11 -89 -158 -123 -255 -32 -92 -55
-181 -66 -257 -3 -25 -8 -59 -11 -77 -20 -130 -7 -285 33 -396 71 -198 225
-344 428 -406 68 -21 129 -53 171 -89 31 -26 73 -114 80 -165 3 -23 7 -715 8
-1537 1 -822 6 -1515 10 -1540 11 -67 61 -188 105 -255 113 -173 318 -302 508
-322 38 -3 1240 -7 2673 -7 l2605 0 82 21 c84 22 187 68 239 107 63 46 172
164 206 222 38 64 76 160 85 209 2 16 7 44 10 60 3 17 6 699 8 1516 1 818 6
1504 10 1525 9 53 42 112 85 153 36 35 127 81 160 81 10 0 21 4 24 9 3 4 20
11 38 15 50 10 165 84 227 146 68 69 124 161 154 255 18 59 22 93 22 215 0
193 -22 319 -85 490 -105 286 -261 497 -511 694 -33 25 -156 106 -163 106 -3
0 -22 11 -42 25 -20 14 -40 22 -45 19 -5 -3 -9 -1 -9 3 0 10 -96 53 -185 83
-88 30 -199 57 -290 70 -44 6 -96 13 -115 16 -19 3 -57 8 -85 10 -27 3 -63 7
-80 8 -16 2 -52 6 -80 10 -57 7 -180 17 -390 31 -347 24 -401 25 -1650 40
-198 3 -400 7 -450 10 -180 10 -902 24 -909 18z"/>
</g>
</svg>
